<?xml version="1.0"?>
<svg xmlns="http://www.w3.org/2000/svg" xmlns:xlink="http://www.w3.org/1999/xlink" xmlns:svgjs="http://svgjs.com/svgjs" version="1.1" width="512" height="512" x="0" y="0" viewBox="0 0 511 511.9852" style="enable-background:new 0 0 512 512" xml:space="preserve" class=""><g><g xmlns="http://www.w3.org/2000/svg" fill-rule="evenodd"><path d="m39.4375 11.777344 353.75 229.242187c5.203125 3.195313 8.375 8.867188 8.375 14.972657 0 6.109374-3.171875 11.78125-8.375 14.976562l-353.75 229.242188c-5.800781 3.949218-13.277344 4.472656-19.574219 1.371093-6.292969-3.101562-10.433593-9.351562-10.835937-16.355469v-458.464843c.402344-7.003907 4.542968-13.253907 10.835937-16.355469 6.296875-3.101562 13.773438-2.578125 19.574219 1.371094zm0 0" fill="#6f717d" data-original="#54ceaf" class=""/><g fill="#232323"><path d="m.492188 485.226562c.011718 9.769532 5.449218 18.726563 14.113281 23.242188 9.289062 5.058594 20.597656 4.632812 29.476562-1.109375l242.652344-157.242187c2.664063-1.613282 4.238281-4.546876 4.109375-7.65625-.128906-3.109376-1.941406-5.902344-4.730469-7.285157-2.785156-1.386719-6.105469-1.144531-8.664062.628907l-242.644531 157.238281c-3.636719 2.335937-8.257813 2.5-12.046876.425781-3.136718-1.5625-5.140624-4.742188-5.199218-8.242188v-340.164062c0-4.714844-3.820313-8.535156-8.53125-8.535156-4.714844 0-8.535156 3.820312-8.535156 8.535156zm0 0" fill="#505361" data-original="#232323" class=""/><path d="m388.546875 263.808594-69.070313 44.757812c-2.597656 1.640625-4.113281 4.554688-3.964843 7.621094.144531 3.070312 1.929687 5.824219 4.671875 7.210938 2.742187 1.386718 6.019531 1.191406 8.578125-.511719l69.058593-44.757813c7.632813-4.769531 12.269532-13.136718 12.269532-22.136718s-4.636719-17.363282-12.269532-22.132813l-353.738281-229.230469c-8.878906-5.746094-20.191406-6.171875-29.476562-1.109375-8.664063 4.515625-14.101563 13.472657-14.113281 23.242188v50.03125c0 4.714843 3.820312 8.535156 8.535156 8.535156 4.710937 0 8.53125-3.820313 8.53125-8.535156v-50.03125c.058594-3.5 2.0625-6.679688 5.199218-8.242188 3.789063-2.074219 8.410157-1.910156 12.046876.425781l353.742187 229.230469c2.773437 1.628907 4.476563 4.601563 4.476563 7.816407 0 3.21875-1.703126 6.191406-4.476563 7.816406zm0 0" fill="#505361" data-original="#232323" class=""/></g></g></g></svg>
