<svg id="svg8" height="512" viewBox="0 0 25.399999 25.399999" width="512" xmlns="http://www.w3.org/2000/svg" xmlns:svg="http://www.w3.org/2000/svg"><g id="layer2"><path id="path828" d="m48 6c-23.172269 0-42 18.827731-42 42s18.828332 42.013009 42.001953 42c8.605777-.004913 16.994656-2.678191 24.035156-7.617188a2.0002 2.0002 0 1 0 -2.296875-3.273437c-6.372899 4.470663-13.96319 6.886256-21.742187 6.890625-21.009153.011717-37.998047-16.989488-37.998047-38 0-21.010508 16.989492-38 38-38 21.010512 0 38.004256 16.989981 38 38-.00158 7.785476-2.403364 15.381895-6.869141 21.761719a2.0002 2.0002 0 1 0 3.277344 2.292969c4.934877-7.049984 7.590051-15.44712 7.591797-24.054688.004535-23.172757-18.827731-42-42-42zm0 8c-4.374728.001276-8.705785.856449-12.753906 2.501953a2.0009733 2.0009733 0 1 0 1.507812 3.707031c3.574653-1.453045 7.392359-2.20786 11.246094-2.208984 16.591522-.004876 30 13.407769 30 30 0 16.592232-13.407768 30-30 30-16.592231 0-30.005351-13.408546-30-30 .001248-3.853542.757209-7.67143 2.210938-11.246094a2.0009738 2.0009738 0 1 0 -3.707032-1.507812c-1.646158 4.047841-2.502488 8.378729-2.503906 12.753906-.006047 18.754772 15.24601 34.000004 34 34 18.753994.000004 34.000004-15.246006 34-34 .000004-18.75399-15.245299-34.00551-34-34zm-7.753906 16.015625c-3.38189-.137131-6.246142 2.615701-6.244141 6v24c-.000933 4.565496 5.170853 7.493118 9.085938 5.144531l19.998047-12.003906c3.81208-2.284743 3.81208-8.012135 0-10.296875l-19.990235-11.988281c-.861418-.517693-1.843389-.814668-2.849609-.855469zm-.16211 3.992187c.333846.013531.657184.115904.945313.289063a2.0002 2.0002 0 0 0 .005859 0l19.998047 11.994141c1.373492.823192 1.373492 2.610401 0 3.433593l-19.998047 12.001953c-1.420256.851989-3.033543-.054729-3.033203-1.710937v-24c-.000692-1.164631.918727-2.054983 2.082031-2.007813zm36.230469 40.277344a2 2.0000009 45 0 0 -1.445312.583985 2 2.0000009 45 0 0 0 2.830078 2 2.0000009 45 0 0 2.830078 0 2 2.0000009 45 0 0 0-2.830078 2 2.0000009 45 0 0 -1.384766-.583985z" fill-rule="evenodd" transform="scale(.265)" font-variant-ligatures="normal" font-variant-position="normal" font-variant-caps="normal" font-variant-numeric="normal" font-variant-alternates="normal" font-feature-settings="normal" text-indent="0" text-align="start" text-decoration-line="none" text-decoration-style="solid" text-decoration-color="rgb(0,0,0)" text-transform="none" text-orientation="mixed" white-space="normal" shape-padding="0" isolation="auto" mix-blend-mode="normal" solid-color="rgb(0,0,0)" solid-opacity="1" vector-effect="none" paint-order="stroke fill markers"/></g></svg>