<?xml version="1.0"?>
<svg xmlns="http://www.w3.org/2000/svg" xmlns:xlink="http://www.w3.org/1999/xlink" xmlns:svgjs="http://svgjs.com/svgjs" version="1.1" width="512" height="512" x="0" y="0" viewBox="0 0 504.412 504.412" style="enable-background:new 0 0 512 512" xml:space="preserve" class=""><g><g xmlns="http://www.w3.org/2000/svg"><g><path d="m482.652 181.729c-115.226-293.735-523.663-196.824-451.81 139.321 19.811 92.68 156.754 162.328 262.701 126.688 111.72-38.856 238.886-129.387 189.109-266.009z" fill="#ffffff" data-original="#ffb6bd" class=""/><path d="m318.228 224.034c-29.609-20.396-125.576-79.305-127.689-28.232-1.941 46.927-35.202 146.897 46.113 129.927 37.485-20.588 122.269-46.678 81.576-101.695z" fill="#c16f15" data-original="#ffd983" class=""/></g><g fill="#2e386b"><path d="m426.292 71.146c-96.69-90.144-238.647-94.389-342.878-14.091-5.244 3.908-7.157 10.621-5.313 16.511-202.9 204.885 39.242 538.36 302.855 396.899 17.688-9.984 4.099-35.357-13.864-26.598-188.959 105.889-398.397-66.22-332.104-272.069 9.593-33.327 27.401-64.368 52.128-88.703 4.812 1.808 10.422 1.109 14.711-2.353 196.813-170.161 500.429 77.457 336.724 295.99-8.548 11.888 10.249 24.671 18.133 12.154 67.695-97.095 60.403-237.619-30.392-317.74z" fill="#6f717d" data-original="#2e386b" class=""/><path d="m338.284 243.614c-7.911-43.512-57.638-51.777-91.812-67.437-64.159-27.991-79.683 2.82-77.249 63.492 1.669 25.802-2.052 54.051 10.411 77.762 22.451 36.877 45.775 16.517 75.431 4.215 35.373-13.119 90.508-30.058 83.219-78.032zm-29.812 12.884c-13.318 27.759-49.894 39.806-75.137 55.048-37.485 28.586-47.042-10.473-45.975-42.281.124-23.789-.827-48.142 5.237-71.19 2.926-16.809 19.803-9.489 31.012-5.344 13.454 5.367 26.345 12.067 39.411 18.877 16.78 9.485 50.59 19.905 45.452 44.89z" fill="#6f717d" data-original="#2e386b" class=""/></g></g></g></svg>
