<?xml version="1.0" encoding="utf-8"?><svg xml:space="preserve" viewBox="0 0 100 100" y="0" x="0" xmlns="http://www.w3.org/2000/svg" id="圖層_1" version="1.1" width="23px" height="23px" xmlns:xlink="http://www.w3.org/1999/xlink" style="width:100%;height:100%;background-size:initial;background-repeat-y:initial;background-repeat-x:initial;background-position-y:initial;background-position-x:initial;background-origin:initial;background-image:initial;background-color:rgb(255, 255, 255);background-clip:initial;background-attachment:initial;animation-play-state:paused" ><g class="ldl-scale" style="transform-origin:50% 50%;transform:rotate(0deg) scale(1, 1);animation-play-state:paused" ><path stroke="#333" stroke-width="8" fill="#fff" stroke-miterlimit="10" d="M74.026 88H25.974C18.256 88 12 81.744 12 74.026V25.974C12 18.256 18.256 12 25.974 12h48.052C81.744 12 88 18.256 88 25.974v48.052C88 81.744 81.744 88 74.026 88z" style="stroke:rgb(102, 102, 102);fill:rgb(255, 255, 255);animation-play-state:paused" ></path>
<path fill="#333" d="M73.265 51.254l-35.594 20.55A1.447 1.447 0 0 1 35.5 70.55v-41.1a1.448 1.448 0 0 1 2.171-1.254l35.594 20.55c.965.558.965 1.95 0 2.508z" style="fill:rgb(102, 102, 102);animation-play-state:paused" ></path>
<metadata xmlns:d="https://loading.io/stock/" style="animation-play-state:paused" ><d:name style="animation-play-state:paused" >play</d:name>


<d:tags style="animation-play-state:paused" >play,start,begin,run,proceed,go,fire,player</d:tags>


<d:license style="animation-play-state:paused" >by</d:license>


<d:slug style="animation-play-state:paused" >g34jed</d:slug></metadata></g><!-- generated by https://loading.io/ --></svg>