<?xml version="1.0"?>
<svg xmlns="http://www.w3.org/2000/svg" xmlns:xlink="http://www.w3.org/1999/xlink" xmlns:svgjs="http://svgjs.com/svgjs" version="1.1" width="512" height="512" x="0" y="0" viewBox="0 0 24 24" style="enable-background:new 0 0 512 512" xml:space="preserve" class=""><g><g xmlns="http://www.w3.org/2000/svg" fill="#4285f4"><path d="m16.19 2h-8.38c-3.64 0-5.81 2.17-5.81 5.81v8.37c0 3.65 2.17 5.82 5.81 5.82h8.37c3.64 0 5.81-2.17 5.81-5.81v-8.38c.01-3.64-2.16-5.81-5.8-5.81z" opacity=".4" fill="#505361" data-original="#4285f4" class=""/><path d="m9.09961 12v-1.48c0-1.91001 1.34999-2.68001 2.99999-1.73001l1.28.74 1.28.74001c1.65.95 1.65 2.51 0 3.46l-1.28.74-1.28.74c-1.65.95-2.99999.17-2.99999-1.73z" fill="#505361" data-original="#4285f4" class=""/></g></g></svg>
