<svg id="Capa_1" enable-background="new 0 0 512.002 512.002" height="512" viewBox="0 0 512.002 512.002" width="512" xmlns="http://www.w3.org/2000/svg"><g><path d="m256 512.001c-39.061 0-77.234-5.199-110.395-15.035-35.758-10.606-64.98-26.535-84.509-46.063-19.527-19.528-35.456-48.751-46.063-84.508-9.835-33.159-15.033-71.333-15.033-110.394s5.198-77.234 15.034-110.395c10.606-35.758 26.535-64.98 46.063-84.509 19.528-19.527 48.751-35.456 84.509-46.063 33.16-9.835 71.333-15.033 110.394-15.033s77.234 5.198 110.395 15.034c35.758 10.606 64.98 26.535 84.509 46.063 2.929 2.93 2.929 7.678 0 10.607-2.931 2.929-7.679 2.927-10.607 0-34.978-34.976-105.596-56.704-184.297-56.704s-149.319 21.728-184.296 56.704-56.704 105.595-56.704 184.296 21.728 149.319 56.704 184.295c34.977 34.978 105.595 56.705 184.296 56.705s149.319-21.728 184.296-56.705c31.392-31.391 52.365-91.862 56.104-161.76 3.698-69.137-9.642-136.472-35.683-180.121-2.123-3.558-.959-8.161 2.598-10.283 3.555-2.123 8.161-.96 10.283 2.598 27.508 46.106 41.631 116.614 37.78 188.607-3.989 74.59-26.031 137.123-60.475 171.566-19.528 19.527-48.751 35.456-84.509 46.063-33.16 9.836-71.333 15.035-110.394 15.035zm-58.311-129.858c-4.201 0-8.415-1.061-12.321-3.193-8.365-4.567-13.359-12.983-13.359-22.515v-201.757c0-9.531 4.994-17.947 13.359-22.515 8.364-4.567 18.146-4.22 26.165.937l68.646 44.13c3.484 2.239 4.493 6.88 2.253 10.364s-6.881 4.491-10.364 2.253l-68.646-44.13c-3.329-2.14-7.391-2.284-10.865-.389-3.474 1.896-5.548 5.392-5.548 9.35v201.757c0 3.958 2.074 7.453 5.548 9.35 3.475 1.897 7.536 1.751 10.865-.389l156.925-100.879c3.109-1.999 4.892-5.264 4.893-8.96 0-3.696-1.783-6.962-4.893-8.961l-57.612-37.036c-3.484-2.239-4.493-6.88-2.253-10.364 2.238-3.485 6.879-4.494 10.364-2.253l57.612 37.036c7.377 4.742 11.781 12.809 11.781 21.579-.001 8.769-4.405 16.835-11.781 21.577l-156.925 100.878c-4.273 2.747-9.05 4.13-13.844 4.13z"/></g></svg>